<?xml version="1.0" encoding="utf-8"?>
<svg viewBox="0 0 256.00007 256.00002" xmlns="http://www.w3.org/2000/svg">
  <g transform="matrix(1, 0, 0, 1, -362.54638671875006, -406.2146911621094)" id="layer1">
    <path id="path10000" d="M 507.687 486.542 C 488.805 486.542 482.448 497.303 471.329 512.565 C 463.62 523.146 447.219 538.584 427.666 531.344 C 419.412 532.902 395.236 524.414 387.467 527.623 C 379.82 530.781 366.333 544.044 362.546 559.592 C 358.759 575.14 367.056 581.438 374.804 589.185 C 382.552 596.932 393.44 601.443 404.397 601.443 L 591.833 601.443 C 598.827 601.443 605.779 598.565 610.724 593.62 C 615.669 588.675 618.546 581.723 618.546 574.73 C 618.546 567.736 615.669 560.788 610.724 555.843 C 605.809 550.928 598.912 548.059 591.962 548.023 C 590.606 535.353 592.885 529.824 583.867 520.806 C 573.483 510.422 574.368 514.166 558.568 508.135 C 555.237 506.864 551.707 496.147 548.211 496.835 C 545.653 493.017 538.42 490.004 533.9 489.156 C 514.468 485.511 526.569 486.542 507.687 486.542 Z" style="color:#000000;clip-rule:nonzero;display:inline;overflow:visible;visibility:visible;color-interpolation:sRGB;color-interpolation-filters:linearRGB;fill:#808080;fill-opacity:1;fill-rule:nonzero;stroke:none;stroke-width:1px;marker:none;color-rendering:auto;image-rendering:auto;shape-rendering:auto;text-rendering:auto;enable-background:accumulate"/>
  </g>
</svg>