<?xml version="1.0" encoding="utf-8"?>
<svg viewBox="0 0 256.00007 256.00002" xmlns="http://www.w3.org/2000/svg">
  <g transform="matrix(1, 0, 0, 1, -362.54638671875006, -406.2146911621094)" id="layer1">
    <path id="path10000" d="M 482.79 496.643 C 477.86 499.781 471.955 502.221 460.836 517.483 C 453.127 528.064 443.027 510.297 421.481 511.453 C 395.959 511.569 385.212 523.894 380.02 527.406 C 373.167 532.042 366.333 544.044 362.546 559.592 C 358.759 575.14 366.569 582.172 374.317 589.919 C 382.065 597.666 393.44 601.443 404.397 601.443 L 591.833 601.443 C 598.827 601.443 608.201 599.911 613.146 594.966 C 618.091 590.021 618.546 581.723 618.546 574.73 C 618.546 567.736 615.948 562.386 611.003 557.441 C 606.088 552.526 603.204 552.514 596.254 552.478 C 595.115 539.461 591.891 527.159 587.381 522.103 C 580.869 514.803 565.959 509.887 550.737 514.295 C 547.411 515.258 548.626 508.121 543.32 501.012 C 536.655 492.082 521.618 489.676 512.917 489.81 C 500.22 490.006 487.72 493.505 482.79 496.643 Z" style="color:#000000;clip-rule:nonzero;display:inline;overflow:visible;visibility:visible;color-interpolation:sRGB;color-interpolation-filters:linearRGB;fill:#808080;fill-opacity:1;fill-rule:nonzero;stroke:none;stroke-width:1px;marker:none;color-rendering:auto;image-rendering:auto;shape-rendering:auto;text-rendering:auto;enable-background:accumulate"/>
  </g>
</svg>